<svg width="1439" height="1013" viewBox="0 0 1439 1013" fill="none" xmlns="http://www.w3.org/2000/svg">
<path d="M1424.01 909.398H134.906V11.5114C134.906 5.18011 128.161 0 119.917 0H14.9896C6.74531 0 0 5.18011 0 11.5114V1001.49C0 1007.82 6.74531 1013 14.9896 1013H1424.01C1432.25 1013 1439 1007.82 1439 1001.49V920.909C1439 914.578 1432.25 909.398 1424.01 909.398ZM299.792 794.284H404.719C412.963 794.284 419.708 789.104 419.708 782.773V575.568C419.708 569.237 412.963 564.057 404.719 564.057H299.792C291.547 564.057 284.802 569.237 284.802 575.568V782.773C284.802 789.104 291.547 794.284 299.792 794.284ZM584.594 794.284H689.521C697.765 794.284 704.51 789.104 704.51 782.773V322.318C704.51 315.987 697.765 310.807 689.521 310.807H584.594C576.349 310.807 569.604 315.987 569.604 322.318V782.773C569.604 789.104 576.349 794.284 584.594 794.284ZM869.396 794.284H974.323C982.567 794.284 989.312 789.104 989.312 782.773V434.554C989.312 428.223 982.567 423.043 974.323 423.043H869.396C861.152 423.043 854.406 428.223 854.406 434.554V782.773C854.406 789.104 861.152 794.284 869.396 794.284ZM1154.2 794.284H1259.12C1267.37 794.284 1274.11 789.104 1274.11 782.773V207.205C1274.11 200.873 1267.37 195.693 1259.12 195.693H1154.2C1145.95 195.693 1139.21 200.873 1139.21 207.205V782.773C1139.21 789.104 1145.95 794.284 1154.2 794.284Z" fill="#482BC0" fill-opacity="0.3"/>
</svg>
