<svg width="1440" height="1015" viewBox="0 0 1440 1015" fill="none" xmlns="http://www.w3.org/2000/svg">
<path d="M1382.4 91.35H1080V10.15C1080 4.5675 1073.52 0 1065.6 0H964.8C956.88 0 950.4 4.5675 950.4 10.15V91.35H489.6V10.15C489.6 4.5675 483.12 0 475.2 0H374.4C366.48 0 360 4.5675 360 10.15V91.35H57.6C25.74 91.35 0 109.493 0 131.95V974.4C0 996.857 25.74 1015 57.6 1015H1382.4C1414.26 1015 1440 996.857 1440 974.4V131.95C1440 109.493 1414.26 91.35 1382.4 91.35ZM1310.4 923.65H129.6V441.525H1310.4V923.65ZM129.6 355.25V182.7H360V243.6C360 249.183 366.48 253.75 374.4 253.75H475.2C483.12 253.75 489.6 249.183 489.6 243.6V182.7H950.4V243.6C950.4 249.183 956.88 253.75 964.8 253.75H1065.6C1073.52 253.75 1080 249.183 1080 243.6V182.7H1310.4V355.25H129.6Z" fill="#713ABE" fill-opacity="0.2"/>
</svg>
