<svg width="1440" height="1024" viewBox="0 0 1440 1024" fill="none" xmlns="http://www.w3.org/2000/svg">
<path d="M1061.04 428.509L894.536 637.527L809.679 531.2C804.858 525.091 797.143 521.6 788.947 521.6H700.715C690.268 521.6 684.161 532.363 690.268 540.072L873.643 770.182C876.011 773.155 879.125 775.577 882.73 777.247C886.334 778.917 890.326 779.789 894.375 779.789C898.425 779.789 902.417 778.917 906.021 777.247C909.626 775.577 912.74 773.155 915.108 770.182L1180.29 437.527C1186.39 429.818 1180.29 419.054 1169.84 419.054H1081.61C1073.57 418.909 1065.86 422.545 1061.04 428.509ZM565.715 488.727H270C262.929 488.727 257.143 493.963 257.143 500.363V570.182C257.143 576.582 262.929 581.818 270 581.818H565.715C572.786 581.818 578.572 576.582 578.572 570.182V500.363C578.572 493.963 572.786 488.727 565.715 488.727Z" fill="#504099" fill-opacity="0.5"/>
<path d="M1388.57 93.0909H1131.43V11.6364C1131.43 5.23636 1125.64 0 1118.57 0H1028.57C1021.5 0 1015.71 5.23636 1015.71 11.6364V93.0909H777.857V11.6364C777.857 5.23636 772.071 0 765 0H675C667.929 0 662.143 5.23636 662.143 11.6364V93.0909H424.286V11.6364C424.286 5.23636 418.5 0 411.429 0H321.429C314.357 0 308.571 5.23636 308.571 11.6364V93.0909H51.4286C22.9821 93.0909 0 113.891 0 139.636V977.455C0 1003.2 22.9821 1024 51.4286 1024H1388.57C1417.02 1024 1440 1003.2 1440 977.455V139.636C1440 113.891 1417.02 93.0909 1388.57 93.0909ZM1324.29 919.273H115.714V197.818H308.571V279.273C308.571 285.673 314.357 290.909 321.429 290.909H411.429C418.5 290.909 424.286 285.673 424.286 279.273V197.818H662.143V279.273C662.143 285.673 667.929 290.909 675 290.909H765C772.071 290.909 777.857 285.673 777.857 279.273V197.818H1015.71V279.273C1015.71 285.673 1021.5 290.909 1028.57 290.909H1118.57C1125.64 290.909 1131.43 285.673 1131.43 279.273V197.818H1324.29V919.273Z" fill="#504099" fill-opacity="0.5"/>
<path d="M565.715 686.547H270C262.929 686.547 257.143 691.783 257.143 698.183V768.002C257.143 774.402 262.929 779.638 270 779.638H565.715C572.786 779.638 578.572 774.402 578.572 768.002V698.183C578.572 691.783 572.786 686.547 565.715 686.547Z" fill="#504099" fill-opacity="0.5"/>
</svg>
