<svg width="1440" height="1022" viewBox="0 0 1440 1022" fill="none" xmlns="http://www.w3.org/2000/svg">
<path d="M1385.71 0.285645H58.2857C26.3625 0.285645 0.571411 18.5437 0.571411 41.1428V980.857C0.571411 1003.46 26.3625 1021.71 58.2857 1021.71H1385.71C1417.64 1021.71 1443.43 1003.46 1443.43 980.857V41.1428C1443.43 18.5437 1417.64 0.285645 1385.71 0.285645ZM1313.57 929.786H130.429V92.2142H1313.57V929.786ZM348.3 526.321H439.741C446.414 526.321 452.005 522.491 452.005 517.639V416.901C452.005 391.748 480.682 371.447 516.032 371.447H887.027V439.628C887.027 446.905 898.75 450.863 906.686 446.395L1103.46 336.974C1109.77 333.527 1109.77 326.76 1103.46 323.312L906.686 213.892C898.75 209.423 887.027 213.509 887.027 220.659V288.839H515.852C416.475 288.839 336.036 346.039 336.036 416.645V517.384C336.036 522.491 341.446 526.321 348.3 526.321ZM340.725 698.56L537.495 807.98C545.43 812.449 557.154 808.363 557.154 801.213V733.033H928.148C1027.52 733.033 1107.96 675.833 1107.96 605.227V504.488C1107.96 499.764 1102.55 495.806 1095.7 495.806H1004.26C997.586 495.806 991.995 499.637 991.995 504.488V605.227C991.995 630.379 963.318 650.68 927.968 650.68H557.154V582.5C557.154 575.222 545.43 571.264 537.495 575.733L340.725 685.154C334.412 688.346 334.412 695.112 340.725 698.56Z" fill="#6C9BCF" fill-opacity="0.3"/>
</svg>
