<svg width="352" height="277" viewBox="0 0 352 277" fill="none" xmlns="http://www.w3.org/2000/svg">
<path d="M208.332 173.715C215.712 165.59 219.79 154.993 219.764 144.009C219.764 119.653 200.161 99.9403 176 99.9403C151.839 99.9403 132.236 119.653 132.236 144.009C132.236 155.458 136.557 165.846 143.668 173.715C135.148 179.003 128.032 186.278 122.929 194.918C117.825 203.558 114.886 213.306 114.361 223.331C114.339 223.758 114.405 224.184 114.553 224.584C114.702 224.984 114.93 225.35 115.224 225.659C115.518 225.969 115.871 226.215 116.263 226.383C116.655 226.551 117.077 226.637 117.504 226.636H134.75C136.4 226.636 137.736 225.338 137.854 223.685C139.346 203.776 155.925 188.077 176.039 188.077C196.154 188.077 212.732 203.815 214.225 223.685C214.343 225.338 215.679 226.636 217.329 226.636H234.536C234.962 226.637 235.384 226.551 235.776 226.383C236.168 226.215 236.522 225.969 236.815 225.659C237.109 225.35 237.338 224.984 237.486 224.584C237.634 224.184 237.7 223.758 237.679 223.331C236.579 202.36 225.107 184.103 208.332 173.715ZM176 164.469C164.804 164.469 155.689 155.301 155.689 144.009C155.689 132.716 164.804 123.548 176 123.548C187.196 123.548 196.311 132.716 196.311 144.009C196.311 155.301 187.196 164.469 176 164.469ZM339.429 25.1818H276.571V3.14773C276.571 1.41648 275.157 0 273.429 0H251.429C249.7 0 248.286 1.41648 248.286 3.14773V25.1818H190.143V3.14773C190.143 1.41648 188.729 0 187 0H165C163.271 0 161.857 1.41648 161.857 3.14773V25.1818H103.714V3.14773C103.714 1.41648 102.3 0 100.571 0H78.5714C76.8429 0 75.4286 1.41648 75.4286 3.14773V25.1818H12.5714C5.61786 25.1818 0 30.8084 0 37.7727V264.409C0 271.373 5.61786 277 12.5714 277H339.429C346.382 277 352 271.373 352 264.409V37.7727C352 30.8084 346.382 25.1818 339.429 25.1818ZM323.714 248.67H28.2857V53.5114H75.4286V75.5455C75.4286 77.2767 76.8429 78.6932 78.5714 78.6932H100.571C102.3 78.6932 103.714 77.2767 103.714 75.5455V53.5114H161.857V75.5455C161.857 77.2767 163.271 78.6932 165 78.6932H187C188.729 78.6932 190.143 77.2767 190.143 75.5455V53.5114H248.286V75.5455C248.286 77.2767 249.7 78.6932 251.429 78.6932H273.429C275.157 78.6932 276.571 77.2767 276.571 75.5455V53.5114H323.714V248.67Z" fill="#DFC9F3" fill-opacity="0.27"/>
</svg>
