<svg width="37" height="37" viewBox="0 0 37 37" fill="none" xmlns="http://www.w3.org/2000/svg">
<path d="M36.5879 16.0996H32.4019C32.1641 16.0996 31.9367 16.2023 31.7765 16.3822L20.4638 29.3471V0.411096C20.4638 0.184993 20.2778 0 20.0504 0H16.9496C16.7222 0 16.5362 0.184993 16.5362 0.411096V29.3471L5.22347 16.3822C5.06843 16.2023 4.84104 16.0996 4.59815 16.0996H0.412088C0.0606653 16.0996 -0.13055 16.5158 0.102009 16.7779L17.2545 36.4334C17.4096 36.6112 17.6013 36.7539 17.8166 36.8516C18.0319 36.9494 18.2659 37 18.5026 37C18.7393 37 18.9733 36.9494 19.1886 36.8516C19.4039 36.7539 19.5956 36.6112 19.7507 36.4334L36.898 16.7779C37.1306 16.5106 36.9393 16.0996 36.5879 16.0996Z" fill="white"/>
</svg>
