<svg width="29" height="29" viewBox="0 0 29 29" fill="none" xmlns="http://www.w3.org/2000/svg">
<path d="M14.5582 9.51535C11.9368 9.51535 9.79748 11.6546 9.79748 14.2761C9.79748 16.8975 11.9368 19.0368 14.5582 19.0368C17.1796 19.0368 19.3189 16.8975 19.3189 14.2761C19.3189 11.6546 17.1796 9.51535 14.5582 9.51535ZM28.8368 14.2761C28.8368 12.3046 28.8546 10.3511 28.7439 8.38321C28.6332 6.09749 28.1118 4.06892 26.4403 2.39749C24.7653 0.722491 22.7403 0.204634 20.4546 0.0939194C18.4832 -0.0167949 16.5296 0.0010623 14.5618 0.0010623C12.5903 0.0010623 10.6368 -0.0167949 8.66891 0.0939194C6.3832 0.204634 4.35463 0.726062 2.6832 2.39749C1.0082 4.07249 0.490339 6.09749 0.379625 8.38321C0.268911 10.3546 0.286768 12.3082 0.286768 14.2761C0.286768 16.2439 0.268911 18.2011 0.379625 20.1689C0.490339 22.4546 1.01177 24.4832 2.6832 26.1546C4.3582 27.8296 6.3832 28.3475 8.66891 28.4582C10.6403 28.5689 12.5939 28.5511 14.5618 28.5511C16.5332 28.5511 18.4868 28.5689 20.4546 28.4582C22.7403 28.3475 24.7689 27.8261 26.4403 26.1546C28.1153 24.4796 28.6332 22.4546 28.7439 20.1689C28.8582 18.2011 28.8368 16.2475 28.8368 14.2761ZM14.5582 21.6011C10.5046 21.6011 7.2332 18.3296 7.2332 14.2761C7.2332 10.2225 10.5046 6.95106 14.5582 6.95106C18.6118 6.95106 21.8832 10.2225 21.8832 14.2761C21.8832 18.3296 18.6118 21.6011 14.5582 21.6011ZM22.1832 8.36178C21.2368 8.36178 20.4725 7.59749 20.4725 6.65106C20.4725 5.70463 21.2368 4.94035 22.1832 4.94035C23.1296 4.94035 23.8939 5.70463 23.8939 6.65106C23.8942 6.8758 23.8501 7.09838 23.7643 7.30606C23.6784 7.51374 23.5524 7.70244 23.3935 7.86135C23.2346 8.02026 23.0459 8.14626 22.8382 8.23213C22.6305 8.318 22.4079 8.36206 22.1832 8.36178Z" fill="black"/>
</svg>
