<svg width="29" height="29" viewBox="0 0 29 29" fill="none" xmlns="http://www.w3.org/2000/svg">
<path d="M27.408 0H1.142C0.510331 0 0 0.510331 0 1.142V27.408C0 28.0397 0.510331 28.55 1.142 28.55H27.408C28.0397 28.55 28.55 28.0397 28.55 27.408V1.142C28.55 0.510331 28.0397 0 27.408 0ZM8.46864 24.3282H4.23254V10.7027H8.46864V24.3282ZM6.35237 8.83979C5.86676 8.83979 5.39206 8.69579 4.98828 8.426C4.58451 8.15621 4.26981 7.77274 4.08397 7.3241C3.89814 6.87545 3.84951 6.38177 3.94425 5.90549C4.03899 5.42921 4.27284 4.99171 4.61622 4.64833C4.9596 4.30495 5.39709 4.07111 5.87337 3.97637C6.34965 3.88163 6.84333 3.93026 7.29198 4.11609C7.74062 4.30193 8.12409 4.61663 8.39388 5.0204C8.66367 5.42417 8.80767 5.89888 8.80767 6.38449C8.80411 7.74062 7.70493 8.83979 6.35237 8.83979ZM24.3282 24.3282H20.0956V17.701C20.0956 16.12 20.0671 14.0894 17.8937 14.0894C15.6918 14.0894 15.3528 15.8096 15.3528 17.5868V24.3282H11.1238V10.7027H15.185V12.5656H15.2421C15.806 11.4949 17.1871 10.3636 19.2498 10.3636C23.5395 10.3636 24.3282 13.1865 24.3282 16.8552V24.3282Z" fill="black"/>
</svg>
