<svg width="19" height="22" viewBox="0 0 19 22" fill="none" xmlns="http://www.w3.org/2000/svg">
<path d="M13.9463 5.95413V4.74312C13.9463 4.63211 13.8553 4.54128 13.7442 4.54128H4.0424C3.93124 4.54128 3.84028 4.63211 3.84028 4.74312V5.95413C3.84028 6.06514 3.93124 6.15596 4.0424 6.15596H13.7442C13.8553 6.15596 13.9463 6.06514 13.9463 5.95413ZM4.0424 8.17431C3.93124 8.17431 3.84028 8.26514 3.84028 8.37615V9.58716C3.84028 9.69816 3.93124 9.78899 4.0424 9.78899H8.69117C8.80233 9.78899 8.89329 9.69816 8.89329 9.58716V8.37615C8.89329 8.26514 8.80233 8.17431 8.69117 8.17431H4.0424ZM7.68057 19.578H1.81908V1.81651H15.9675V10.4954C15.9675 10.6064 16.0584 10.6972 16.1696 10.6972H17.5845C17.6956 10.6972 17.7866 10.6064 17.7866 10.4954V0.807339C17.7866 0.36078 17.4253 0 16.9781 0H0.808481C0.36129 0 0 0.36078 0 0.807339V20.5872C0 21.0337 0.36129 21.3945 0.808481 21.3945H7.68057C7.79173 21.3945 7.88269 21.3037 7.88269 21.1927V19.7798C7.88269 19.6688 7.79173 19.578 7.68057 19.578ZM18.9412 20.8773L16.584 18.5234C17.1474 17.7791 17.4834 16.8507 17.4834 15.844C17.4834 13.3917 15.4925 11.4037 13.0368 11.4037C10.581 11.4037 8.59011 13.3917 8.59011 15.844C8.59011 18.2963 10.581 20.2844 13.0368 20.2844C13.9412 20.2844 14.78 20.0144 15.4824 19.5528L17.875 21.942C17.9154 21.9823 17.966 22 18.0165 22C18.067 22 18.1201 21.9798 18.158 21.942L18.9412 21.1599C18.9598 21.1413 18.9746 21.1193 18.9847 21.0951C18.9948 21.0708 19 21.0448 19 21.0186C19 20.9923 18.9948 20.9663 18.9847 20.9421C18.9746 20.9178 18.9598 20.8958 18.9412 20.8773ZM13.0368 18.6697C11.4728 18.6697 10.2071 17.4057 10.2071 15.844C10.2071 14.2823 11.4728 13.0183 13.0368 13.0183C14.6007 13.0183 15.8664 14.2823 15.8664 15.844C15.8664 17.4057 14.6007 18.6697 13.0368 18.6697Z" fill="#654E92"/>
</svg>
