<svg width="37" height="37" viewBox="0 0 37 37" fill="none" xmlns="http://www.w3.org/2000/svg">
<path d="M0.412088 20.9004L4.59815 20.9004C4.83587 20.9004 5.06326 20.7977 5.22347 20.6178L16.5362 7.65288L16.5362 36.5889C16.5362 36.815 16.7222 37 16.9496 37L20.0504 37C20.2778 37 20.4638 36.815 20.4638 36.5889L20.4638 7.65288L31.7765 20.6178C31.9316 20.7977 32.159 20.9004 32.4019 20.9004L36.5879 20.9004C36.9393 20.9004 37.1306 20.4842 36.898 20.2221L19.7455 0.566607C19.5904 0.38875 19.3988 0.246111 19.1834 0.148352C18.9681 0.0505928 18.7341 -1.59685e-06 18.4974 -1.61755e-06C18.2607 -1.63824e-06 18.0268 0.0505927 17.8114 0.148352C17.5961 0.246111 17.4044 0.38875 17.2494 0.566607L0.10201 20.2221C-0.130549 20.4893 0.0606665 20.9004 0.412088 20.9004Z" fill="white"/>
</svg>
