<svg width="29" height="29" viewBox="0 0 29 29" fill="none" xmlns="http://www.w3.org/2000/svg">
<g clip-path="url(#clip0_76_28)">
<path d="M20.9813 17.076C20.634 16.8975 18.9037 16.05 18.5819 15.9352C18.2601 15.8142 18.0243 15.7568 17.7917 16.1137C17.5559 16.4674 16.8868 17.2544 16.6765 17.4934C16.4725 17.7292 16.2654 17.7579 15.9181 17.5826C13.8533 16.5502 12.4991 15.7409 11.1385 13.4053C10.7785 12.7839 11.4986 12.8285 12.1709 11.4871C12.2856 11.2513 12.2283 11.0505 12.1391 10.8721C12.0498 10.6936 11.3488 8.96662 11.0557 8.26243C10.7721 7.57736 10.4789 7.67295 10.2655 7.66021C10.0615 7.64746 9.82893 7.64746 9.59313 7.64746C9.35734 7.64746 8.97816 7.73668 8.65634 8.084C8.33451 8.43768 7.42639 9.28845 7.42639 11.0155C7.42639 12.7425 8.68501 14.4153 8.85708 14.6511C9.03552 14.8869 11.3329 18.4302 14.8602 19.9565C17.0907 20.9187 17.9638 21.0016 19.079 20.8359C19.7577 20.7339 21.1565 19.9883 21.4465 19.1631C21.7364 18.341 21.7364 17.6368 21.6504 17.4902C21.5644 17.3341 21.3286 17.2448 20.9813 17.076Z" fill="black"/>
<path d="M27.7268 8.74344C27.0067 7.03235 25.9743 5.49651 24.6583 4.17735C23.3516 2.86582 21.8002 1.82332 20.0922 1.10886C18.3397 0.372807 16.4789 0 14.5607 0H14.4969C12.566 0.00955915 10.6956 0.391925 8.93671 1.14391C7.24333 1.8657 5.70655 2.91005 4.41204 4.21877C3.10881 5.53475 2.08598 7.06421 1.3786 8.76893C0.645734 10.5342 0.276114 12.411 0.285673 14.3419C0.296485 16.5548 0.820003 18.735 1.81514 20.7115V25.5548C1.81514 25.9435 1.96956 26.3164 2.24444 26.5912C2.51932 26.8661 2.89214 27.0205 3.28087 27.0205H8.12736C10.1039 28.0157 12.2841 28.5392 14.4969 28.55H14.5639C16.4725 28.55 18.3238 28.1804 20.0667 27.4571C21.7661 26.7511 23.3117 25.7208 24.6169 24.4236C25.9329 23.1204 26.9685 21.5973 27.6918 19.899C28.4437 18.1401 28.8261 16.2697 28.8357 14.3387C28.8452 12.3982 28.4692 10.5151 27.7268 8.74344ZM22.9122 22.6998C20.6785 24.9111 17.7152 26.1283 14.5607 26.1283H14.5065C12.5851 26.1188 10.6765 25.6408 8.99087 24.7423L8.72322 24.5989H4.23679V20.1125L4.0934 19.8448C3.19484 18.1592 2.71688 16.2506 2.70732 14.3292C2.69458 11.1523 3.90859 8.16989 6.13587 5.92349C8.35997 3.67709 11.3329 2.4344 14.5097 2.42165H14.5639C16.1571 2.42165 17.7024 2.73073 19.1586 3.34252C20.5798 3.93837 21.8543 4.79551 22.9504 5.89162C24.0434 6.98455 24.9037 8.26229 25.4995 9.68342C26.1177 11.1555 26.4268 12.7169 26.4204 14.3292C26.4013 17.5028 25.1554 20.4757 22.9122 22.6998Z" fill="black"/>
</g>
<defs>
<clipPath id="clip0_76_28">
<rect width="28.55" height="28.55" fill="white" transform="translate(0.285706)"/>
</clipPath>
</defs>
</svg>
